<?xml version="1.0" standalone="no"?>
<!DOCTYPE svg PUBLIC "-//W3C//DTD SVG 20010904//EN"
 "http://www.w3.org/TR/2001/REC-SVG-20010904/DTD/svg10.dtd">
<svg version="1.0" xmlns="http://www.w3.org/2000/svg"
 width="485.000000pt" height="485.000000pt" viewBox="0 0 485.000000 485.000000"
 preserveAspectRatio="xMidYMid meet">
<metadata>
Created by potrace 1.11, written by Peter Selinger 2001-2013
</metadata>
<g transform="translate(0.000000,485.000000) scale(0.100000,-0.100000)"
fill="#000000" stroke="none">
<path d="M934 4349 c-17 -19 -19 -41 -19 -291 -1 -226 1 -276 14 -302 17 -33
44 -42 88 -31 44 11 49 43 48 334 0 250 -2 271 -19 290 -26 29 -86 29 -112 0z"/>
<path d="M1874 4349 c-17 -19 -18 -41 -19 -290 -1 -288 4 -322 47 -338 34 -12
78 7 92 40 8 19 12 112 11 297 0 251 -1 271 -19 291 -26 28 -86 29 -112 0z"/>
<path d="M2804 4349 c-18 -20 -19 -40 -19 -298 0 -245 2 -280 17 -303 31 -48
107 -36 125 19 5 15 9 148 8 295 0 246 -2 268 -19 287 -26 29 -86 28 -112 0z"/>
<path d="M3744 4349 c-17 -19 -19 -41 -19 -292 -1 -303 4 -329 59 -335 39 -5
73 15 84 47 4 14 8 146 7 293 0 246 -2 268 -19 287 -26 28 -86 28 -112 0z"/>
<path d="M262 4088 c-102 -15 -184 -75 -229 -166 l-28 -57 0 -1595 1 -1595 25
-55 c34 -71 99 -137 169 -169 l55 -25 1175 -2 c646 0 1178 1 1183 3 4 3 -22
37 -58 76 l-64 72 -1088 0 c-598 -1 -1104 3 -1123 8 -44 11 -107 71 -116 111
-7 29 -14 2500 -7 2521 2 7 748 10 2216 9 1216 -1 2219 -2 2227 -3 13 -1 15
-52 15 -398 l-1 -398 36 -40 c20 -22 53 -62 72 -88 20 -26 38 -44 41 -40 2 4
3 370 2 813 -1 790 -1 806 -21 851 -27 58 -78 115 -124 139 -58 30 -122 36
-365 35 l-230 0 -1 -180 c0 -152 -3 -185 -18 -215 -91 -178 -321 -178 -411 0
-15 29 -18 64 -19 215 l-2 180 -244 0 -245 0 -1 -180 c-1 -196 -8 -226 -68
-287 -88 -88 -239 -80 -323 16 -49 54 -56 93 -57 279 -1 92 -3 168 -6 168 -3
1 -108 2 -233 3 -148 1 -231 -2 -235 -9 -4 -5 -7 -84 -8 -175 -1 -131 -4 -173
-18 -205 -78 -184 -334 -184 -412 0 -13 32 -17 75 -18 215 l-2 175 -234 1
c-129 0 -240 -1 -245 -3 -7 -2 -10 -64 -10 -166 0 -123 -4 -173 -16 -210 -65
-193 -334 -201 -415 -12 -14 32 -17 74 -18 215 l-1 175 -225 0 c-124 0 -249
-3 -278 -7z"/>
<path d="M3395 2705 c-185 -29 -369 -102 -522 -207 -100 -68 -253 -221 -321
-321 -73 -106 -146 -263 -176 -377 -34 -129 -36 -146 -42 -295 -26 -615 394
-1150 1006 -1281 91 -19 319 -26 415 -13 569 81 1003 515 1084 1084 13 96 6
324 -13 415 -128 597 -643 1014 -1246 1009 -58 -1 -141 -7 -185 -14z m369
-156 c440 -73 786 -394 896 -832 26 -103 28 -125 26 -272 -3 -134 -7 -176 -29
-258 -103 -387 -409 -693 -794 -793 -145 -38 -340 -44 -482 -14 -378 78 -680
329 -818 679 -196 500 2 1076 466 1351 217 129 489 180 735 139z"/>
<path d="M3513 2430 c-18 -10 -40 -34 -49 -52 -64 -125 57 -255 184 -198 52
23 82 70 82 128 0 85 -56 142 -140 142 -27 0 -58 -8 -77 -20z"/>
<path d="M3887 1818 l-280 -282 -236 -1 c-165 -1 -243 -5 -258 -13 -26 -14
-53 -61 -53 -92 0 -31 27 -78 53 -92 29 -15 465 -19 505 -3 15 5 170 154 345
331 284 287 317 324 317 353 0 43 -38 81 -81 81 -28 0 -62 -30 -312 -282z"/>
<path d="M2662 1580 c-64 -39 -86 -140 -43 -199 33 -47 68 -65 120 -64 85 1
141 59 141 145 0 109 -123 176 -218 118z"/>
<path d="M4363 1580 c-41 -25 -65 -71 -65 -128 0 -102 112 -168 207 -121 96
47 99 205 5 254 -41 21 -109 19 -147 -5z"/>
<path d="M3513 730 c-120 -73 -66 -264 75 -264 144 0 197 185 76 265 -38 25
-109 25 -151 -1z"/>
<path d="M307 2650 c-3 -13 -2 -94 2 -125 1 -7 85 -10 242 -10 132 0 246 -3
252 -7 15 -9 17 -547 2 -549 -5 -1 -120 -2 -254 -3 l-244 -1 -2 -25 c-1 -14
-1 -30 2 -35 2 -7 90 -10 246 -10 133 0 247 -1 252 -2 11 -4 14 -551 3 -568
-4 -7 -96 -10 -252 -10 -135 0 -247 -2 -247 -5 -9 -39 -6 -58 9 -62 9 -2 124
-4 255 -3 155 0 237 -3 238 -10 1 -5 2 -120 3 -255 l1 -245 40 0 40 0 1 245
c1 135 2 250 3 255 1 6 117 10 328 9 181 -1 333 -2 338 -3 6 -1 10 -92 10
-253 l0 -252 40 0 40 -1 0 255 0 255 268 0 267 0 0 32 c0 19 -5 34 -12 34 -7
1 -123 2 -258 3 -135 1 -250 4 -255 8 -6 4 -10 108 -9 285 1 153 2 280 3 283
0 3 132 5 292 5 l291 0 10 24 c5 13 7 29 5 35 -3 8 -95 11 -301 11 -190 0
-296 4 -297 10 -3 25 -5 531 -2 540 2 6 126 10 346 10 l342 0 0 -188 0 -188
21 26 c52 65 60 96 59 224 0 74 4 121 10 122 6 1 56 2 112 3 86 1 106 4 125
21 13 10 57 43 98 73 41 30 76 55 77 55 1 1 -570 2 -1267 2 -1125 0 -1269 -1
-1273 -15z m1258 -142 c7 -4 10 -101 9 -275 -1 -147 -2 -270 -3 -273 -1 -4
-653 -5 -671 -1 -4 1 -5 556 -1 556 34 4 659 -3 666 -7z m2 -632 c4 -4 8 -133
8 -287 0 -241 -2 -279 -15 -280 -84 -7 -653 -2 -659 6 -6 8 -8 516 -2 560 1
12 656 13 668 1z"/>
</g>
</svg>
